<svg width="1024" height="1024" viewBox="0 0 1024 1024" fill="none" xmlns="http://www.w3.org/2000/svg">
  <!-- Chat bubble background -->
  <path d="M512 100C300 100 130 250 130 440C130 560 190 670 290 740L250 850L380 780C420 790 465 795 512 795C724 795 894 645 894 455C894 265 724 100 512 100Z" fill="#FF8C42"/>
  
  <!-- Bot head circle -->
  <circle cx="512" cy="440" r="200" fill="#FF8C42" stroke="#3D2E5C" stroke-width="30"/>
  
  <!-- Headphones left -->
  <path d="M280 380C280 380 250 380 250 420C250 460 250 480 250 480C250 500 270 500 280 500C290 500 310 500 310 480C310 460 310 420 310 420C310 400 290 380 280 380Z" fill="#3D2E5C"/>
  
  <!-- Headphones right -->
  <path d="M744 380C744 380 774 380 774 420C774 460 774 480 774 480C774 500 754 500 744 500C734 500 714 500 714 480C714 460 714 420 714 420C714 400 734 380 744 380Z" fill="#3D2E5C"/>
  
  <!-- Headphone band -->
  <path d="M280 350C280 350 350 280 512 280C674 280 744 350 744 350" stroke="#3D2E5C" stroke-width="30" stroke-linecap="round" fill="none"/>
  
  <!-- Antenna -->
  <rect x="497" y="230" width="30" height="50" rx="15" fill="#3D2E5C"/>
  <circle cx="512" cy="220" r="25" fill="#FF8C42" stroke="#3D2E5C" stroke-width="15"/>
  
  <!-- Face background -->
  <circle cx="512" cy="440" r="140" fill="#FFF5E6"/>
  
  <!-- Left eye -->
  <circle cx="460" cy="420" r="25" fill="#3D2E5C"/>
  
  <!-- Right eye -->
  <circle cx="564" cy="420" r="25" fill="#3D2E5C"/>
  
  <!-- Smile -->
  <path d="M430 470C430 470 470 510 512 510C554 510 594 470 594 470" stroke="#3D2E5C" stroke-width="20" stroke-linecap="round" fill="none"/>
  
  <!-- Microphone -->
  <path d="M512 540L512 600" stroke="#3D2E5C" stroke-width="25" stroke-linecap="round"/>
  <circle cx="512" cy="620" r="30" fill="#3D2E5C"/>
</svg>
